<mxfile host="Electron" modified="2023-12-06T10:12:08.941Z" agent="Mozilla/5.0 (Macintosh; Intel Mac OS X 10_15_7) AppleWebKit/537.36 (KHTML, like Gecko) draw.io/22.1.2 Chrome/114.0.5735.289 Electron/25.9.4 Safari/537.36" etag="Uw4a1Ozqf-177ulC8vkt" version="22.1.2" type="device">
  <diagram name="Page-1" id="iJf9FKaNLNnPXfkKHJVF">
    <mxGraphModel dx="1173" dy="899" grid="1" gridSize="10" guides="1" tooltips="1" connect="1" arrows="1" fold="1" page="1" pageScale="1" pageWidth="827" pageHeight="1169" math="0" shadow="0">
      <root>
        <mxCell id="0" />
        <mxCell id="1" parent="0" />
        <mxCell id="6eo2FJEWSkk9vw6bgrm8-1" value="&lt;pre&gt;&lt;font style=&quot;font-size: 11px;&quot;&gt;bear(head, body, leg)&lt;/font&gt;&lt;/pre&gt;" style="rounded=0;whiteSpace=wrap;html=1;" parent="1" vertex="1">
          <mxGeometry x="240" y="120" width="320" height="40" as="geometry" />
        </mxCell>
        <mxCell id="6eo2FJEWSkk9vw6bgrm8-10" style="edgeStyle=orthogonalEdgeStyle;rounded=0;orthogonalLoop=1;jettySize=auto;html=1;exitX=0.5;exitY=0;exitDx=0;exitDy=0;entryX=0.25;entryY=1;entryDx=0;entryDy=0;" parent="1" source="6eo2FJEWSkk9vw6bgrm8-5" target="6eo2FJEWSkk9vw6bgrm8-1" edge="1">
          <mxGeometry relative="1" as="geometry" />
        </mxCell>
        <mxCell id="6eo2FJEWSkk9vw6bgrm8-11" value="&lt;pre&gt;BufferedImage/&lt;font color=&quot;#f00000&quot;&gt;null&lt;/font&gt;&lt;/pre&gt;" style="edgeLabel;html=1;align=center;verticalAlign=middle;resizable=0;points=[];labelBackgroundColor=none;" parent="6eo2FJEWSkk9vw6bgrm8-10" vertex="1" connectable="0">
          <mxGeometry x="0.1225" y="-1" relative="1" as="geometry">
            <mxPoint x="-36" y="19" as="offset" />
          </mxGeometry>
        </mxCell>
        <mxCell id="6eo2FJEWSkk9vw6bgrm8-5" value="&lt;pre&gt;&lt;font style=&quot;font-size: 11px;&quot;&gt;readMember(&quot;heads&quot;, head)&lt;/font&gt;&lt;/pre&gt;" style="rounded=0;whiteSpace=wrap;html=1;" parent="1" vertex="1">
          <mxGeometry x="60" y="240" width="200" height="40" as="geometry" />
        </mxCell>
        <mxCell id="6eo2FJEWSkk9vw6bgrm8-6" value="&lt;pre&gt;&lt;font style=&quot;font-size: 11px;&quot;&gt;readMember(&quot;bodies&quot;, body)&lt;/font&gt;&lt;/pre&gt;" style="rounded=0;whiteSpace=wrap;html=1;" parent="1" vertex="1">
          <mxGeometry x="300" y="240" width="200" height="40" as="geometry" />
        </mxCell>
        <mxCell id="6eo2FJEWSkk9vw6bgrm8-12" style="edgeStyle=orthogonalEdgeStyle;rounded=0;orthogonalLoop=1;jettySize=auto;html=1;exitX=0.5;exitY=0;exitDx=0;exitDy=0;entryX=0.75;entryY=1;entryDx=0;entryDy=0;" parent="1" source="6eo2FJEWSkk9vw6bgrm8-7" target="6eo2FJEWSkk9vw6bgrm8-1" edge="1">
          <mxGeometry relative="1" as="geometry" />
        </mxCell>
        <mxCell id="6eo2FJEWSkk9vw6bgrm8-13" value="&lt;pre style=&quot;&quot;&gt;&lt;pre&gt;BufferedImage/&lt;font color=&quot;#f00000&quot;&gt;null&lt;/font&gt;&lt;/pre&gt;&lt;/pre&gt;" style="edgeLabel;html=1;align=center;verticalAlign=middle;resizable=0;points=[];labelBackgroundColor=none;" parent="6eo2FJEWSkk9vw6bgrm8-12" vertex="1" connectable="0">
          <mxGeometry x="0.1809" y="-3" relative="1" as="geometry">
            <mxPoint x="171" y="23" as="offset" />
          </mxGeometry>
        </mxCell>
        <mxCell id="6eo2FJEWSkk9vw6bgrm8-7" value="&lt;pre&gt;&lt;font style=&quot;font-size: 11px;&quot;&gt;readMember(&quot;legs&quot;, leg)&lt;/font&gt;&lt;/pre&gt;" style="rounded=0;whiteSpace=wrap;html=1;" parent="1" vertex="1">
          <mxGeometry x="540" y="240" width="200" height="40" as="geometry" />
        </mxCell>
        <mxCell id="6eo2FJEWSkk9vw6bgrm8-8" value="" style="endArrow=classic;html=1;rounded=0;exitX=0.5;exitY=0;exitDx=0;exitDy=0;" parent="1" source="6eo2FJEWSkk9vw6bgrm8-1" edge="1">
          <mxGeometry width="50" height="50" relative="1" as="geometry">
            <mxPoint x="630" y="220" as="sourcePoint" />
            <mxPoint x="400" y="40" as="targetPoint" />
          </mxGeometry>
        </mxCell>
        <mxCell id="6eo2FJEWSkk9vw6bgrm8-9" value="&lt;pre&gt;byte[]/&lt;font color=&quot;#f00000&quot;&gt;null&lt;/font&gt;&lt;/pre&gt;" style="edgeLabel;html=1;align=center;verticalAlign=middle;resizable=0;points=[];" parent="6eo2FJEWSkk9vw6bgrm8-8" vertex="1" connectable="0">
          <mxGeometry x="0.1356" y="1" relative="1" as="geometry">
            <mxPoint x="41" y="25" as="offset" />
          </mxGeometry>
        </mxCell>
        <mxCell id="6eo2FJEWSkk9vw6bgrm8-14" style="edgeStyle=orthogonalEdgeStyle;rounded=0;orthogonalLoop=1;jettySize=auto;html=1;exitX=0.5;exitY=0;exitDx=0;exitDy=0;entryX=0.5;entryY=1.107;entryDx=0;entryDy=0;entryPerimeter=0;" parent="1" source="6eo2FJEWSkk9vw6bgrm8-6" target="6eo2FJEWSkk9vw6bgrm8-1" edge="1">
          <mxGeometry relative="1" as="geometry" />
        </mxCell>
        <mxCell id="6eo2FJEWSkk9vw6bgrm8-15" value="&lt;pre style=&quot;&quot;&gt;&lt;pre&gt;BufferedImage/&lt;font color=&quot;#f00000&quot;&gt;null&lt;/font&gt;&lt;/pre&gt;&lt;/pre&gt;" style="edgeLabel;html=1;align=center;verticalAlign=middle;resizable=0;points=[];labelBackgroundColor=none;" parent="6eo2FJEWSkk9vw6bgrm8-14" vertex="1" connectable="0">
          <mxGeometry x="0.2296" y="2" relative="1" as="geometry">
            <mxPoint x="72" y="26" as="offset" />
          </mxGeometry>
        </mxCell>
        <mxCell id="6eo2FJEWSkk9vw6bgrm8-16" value="&lt;pre&gt;&lt;font style=&quot;font-size: 11px;&quot;&gt;loadImageFromSpecifiedDir(&quot;bodies&quot;, body)&lt;/font&gt;&lt;/pre&gt;" style="rounded=0;whiteSpace=wrap;html=1;" parent="1" vertex="1">
          <mxGeometry x="260" y="440" width="280" height="40" as="geometry" />
        </mxCell>
        <mxCell id="6eo2FJEWSkk9vw6bgrm8-17" style="edgeStyle=orthogonalEdgeStyle;rounded=0;orthogonalLoop=1;jettySize=auto;html=1;exitX=0.5;exitY=0;exitDx=0;exitDy=0;entryX=0.5;entryY=1;entryDx=0;entryDy=0;" parent="1" source="6eo2FJEWSkk9vw6bgrm8-16" target="6eo2FJEWSkk9vw6bgrm8-6" edge="1">
          <mxGeometry relative="1" as="geometry">
            <mxPoint x="420" y="300" as="targetPoint" />
          </mxGeometry>
        </mxCell>
        <mxCell id="6eo2FJEWSkk9vw6bgrm8-18" value="&lt;pre style=&quot;&quot;&gt;&lt;pre&gt;BufferedImage/&lt;font color=&quot;#f00000&quot;&gt;null&lt;/font&gt;&lt;/pre&gt;&lt;/pre&gt;" style="edgeLabel;html=1;align=center;verticalAlign=middle;resizable=0;points=[];labelBackgroundColor=none;" parent="6eo2FJEWSkk9vw6bgrm8-17" vertex="1" connectable="0">
          <mxGeometry x="0.2296" y="2" relative="1" as="geometry">
            <mxPoint x="72" y="78" as="offset" />
          </mxGeometry>
        </mxCell>
        <mxCell id="6eo2FJEWSkk9vw6bgrm8-26" style="edgeStyle=orthogonalEdgeStyle;rounded=0;orthogonalLoop=1;jettySize=auto;html=1;exitX=0.5;exitY=0;exitDx=0;exitDy=0;entryX=0.25;entryY=1;entryDx=0;entryDy=0;" parent="1" source="6eo2FJEWSkk9vw6bgrm8-20" target="6eo2FJEWSkk9vw6bgrm8-6" edge="1">
          <mxGeometry relative="1" as="geometry" />
        </mxCell>
        <mxCell id="6eo2FJEWSkk9vw6bgrm8-27" value="&lt;pre style=&quot;&quot;&gt;&lt;pre&gt;BufferedImage/&lt;font color=&quot;#f00000&quot;&gt;null&lt;/font&gt;&lt;/pre&gt;&lt;/pre&gt;" style="edgeLabel;html=1;align=center;verticalAlign=middle;resizable=0;points=[];labelBackgroundColor=none;" parent="6eo2FJEWSkk9vw6bgrm8-26" vertex="1" connectable="0">
          <mxGeometry x="0.0061" relative="1" as="geometry">
            <mxPoint x="-26" y="20" as="offset" />
          </mxGeometry>
        </mxCell>
        <mxCell id="6eo2FJEWSkk9vw6bgrm8-20" value="&lt;pre&gt;&lt;font style=&quot;font-size: 11px;&quot;&gt;loadImageFromWorkingDir(&quot;bodies&quot;, body)&lt;/font&gt;&lt;/pre&gt;" style="rounded=0;whiteSpace=wrap;html=1;" parent="1" vertex="1">
          <mxGeometry x="20" y="360" width="280" height="40" as="geometry" />
        </mxCell>
        <mxCell id="6eo2FJEWSkk9vw6bgrm8-23" value="&lt;pre&gt;&lt;font style=&quot;font-size: 11px;&quot;&gt;loadImageFromResource(&quot;bodies&quot;, body)&lt;/font&gt;&lt;/pre&gt;" style="rounded=0;whiteSpace=wrap;html=1;" parent="1" vertex="1">
          <mxGeometry x="440" y="520" width="320" height="40" as="geometry" />
        </mxCell>
        <mxCell id="6eo2FJEWSkk9vw6bgrm8-24" style="edgeStyle=orthogonalEdgeStyle;rounded=0;orthogonalLoop=1;jettySize=auto;html=1;exitX=0.5;exitY=0;exitDx=0;exitDy=0;entryX=0.75;entryY=1;entryDx=0;entryDy=0;" parent="1" source="6eo2FJEWSkk9vw6bgrm8-23" target="6eo2FJEWSkk9vw6bgrm8-6" edge="1">
          <mxGeometry relative="1" as="geometry">
            <mxPoint x="600" y="360" as="targetPoint" />
            <Array as="points">
              <mxPoint x="600" y="320" />
              <mxPoint x="450" y="320" />
            </Array>
          </mxGeometry>
        </mxCell>
        <mxCell id="6eo2FJEWSkk9vw6bgrm8-25" value="&lt;pre style=&quot;&quot;&gt;&lt;pre&gt;BufferedImage/&lt;font color=&quot;#f00000&quot;&gt;null&lt;/font&gt;&lt;/pre&gt;&lt;/pre&gt;" style="edgeLabel;html=1;align=center;verticalAlign=middle;resizable=0;points=[];labelBackgroundColor=none;" parent="6eo2FJEWSkk9vw6bgrm8-24" vertex="1" connectable="0">
          <mxGeometry x="0.2296" y="2" relative="1" as="geometry">
            <mxPoint x="110" y="178" as="offset" />
          </mxGeometry>
        </mxCell>
        <mxCell id="6eo2FJEWSkk9vw6bgrm8-28" style="edgeStyle=orthogonalEdgeStyle;rounded=0;orthogonalLoop=1;jettySize=auto;html=1;exitX=0.5;exitY=0;exitDx=0;exitDy=0;entryX=0.5;entryY=1;entryDx=0;entryDy=0;" parent="1" source="6eo2FJEWSkk9vw6bgrm8-30" target="6eo2FJEWSkk9vw6bgrm8-16" edge="1">
          <mxGeometry relative="1" as="geometry">
            <mxPoint x="350" y="560" as="targetPoint" />
          </mxGeometry>
        </mxCell>
        <mxCell id="6eo2FJEWSkk9vw6bgrm8-29" value="&lt;pre style=&quot;&quot;&gt;&lt;pre&gt;BufferedImage/&lt;font color=&quot;#f00000&quot;&gt;null&lt;/font&gt;&lt;/pre&gt;&lt;/pre&gt;" style="edgeLabel;html=1;align=center;verticalAlign=middle;resizable=0;points=[];labelBackgroundColor=none;" parent="6eo2FJEWSkk9vw6bgrm8-28" vertex="1" connectable="0">
          <mxGeometry x="0.0061" relative="1" as="geometry">
            <mxPoint x="70" y="60" as="offset" />
          </mxGeometry>
        </mxCell>
        <mxCell id="6eo2FJEWSkk9vw6bgrm8-30" value="&lt;pre&gt;&lt;font style=&quot;font-size: 11px;&quot;&gt;loadImage(inputStream)&lt;/font&gt;&lt;/pre&gt;" style="rounded=0;whiteSpace=wrap;html=1;" parent="1" vertex="1">
          <mxGeometry x="260" y="640" width="280" height="40" as="geometry" />
        </mxCell>
        <mxCell id="6eo2FJEWSkk9vw6bgrm8-31" value="OR" style="text;html=1;strokeColor=none;fillColor=none;align=center;verticalAlign=middle;whiteSpace=wrap;rounded=0;" parent="1" vertex="1">
          <mxGeometry x="354" y="290" width="40" height="20" as="geometry" />
        </mxCell>
        <mxCell id="6eo2FJEWSkk9vw6bgrm8-32" value="AND" style="text;html=1;strokeColor=none;fillColor=none;align=center;verticalAlign=middle;whiteSpace=wrap;rounded=0;" parent="1" vertex="1">
          <mxGeometry x="340" y="170" width="40" height="20" as="geometry" />
        </mxCell>
        <mxCell id="6eo2FJEWSkk9vw6bgrm8-33" value="AND" style="text;html=1;strokeColor=none;fillColor=none;align=center;verticalAlign=middle;whiteSpace=wrap;rounded=0;" parent="1" vertex="1">
          <mxGeometry x="420" y="170" width="40" height="20" as="geometry" />
        </mxCell>
        <mxCell id="6eo2FJEWSkk9vw6bgrm8-34" value="OR" style="text;html=1;strokeColor=none;fillColor=none;align=center;verticalAlign=middle;whiteSpace=wrap;rounded=0;" parent="1" vertex="1">
          <mxGeometry x="400" y="290" width="40" height="20" as="geometry" />
        </mxCell>
      </root>
    </mxGraphModel>
  </diagram>
</mxfile>
